HIERARCHY
ROOT hip
{
	OFFSET 0.000000 0.000000 0.000000 
	CHANNELS 6 Xposition Yposition Zposition Xrotation Zrotation Yrotation
	JOINT abdomen
	{
		OFFSET 0.000000 3.402643 0.000000 
		CHANNELS 3 Xrotation Zrotation Yrotation
		JOINT chest
		{
			OFFSET 0.000000 8.438565 -0.680529 
			CHANNELS 3 Xrotation Zrotation Yrotation
			JOINT neck
			{
				OFFSET 0.000000 10.207942 -0.272212 
				CHANNELS 3 Xrotation Zrotation Yrotation
				JOINT head
				{
					OFFSET 0.000000 3.130431 0.000000 
					CHANNELS 3 Xrotation Zrotation Yrotation
					End Site
					{
						OFFSET 0.000000 3.130435 0.000000 
					}
				}
			}
			JOINT lCollar
			{
				OFFSET 3.470700 6.669187 -0.816635 
				CHANNELS 3 Yrotation Zrotation Xrotation
				JOINT lShldr
				{
					OFFSET 3.198488 0.000000 0.000000 
					CHANNELS 3 Zrotation Yrotation Xrotation
					JOINT lForeArm
					{
						OFFSET 10.139888 0.000000 0.000000 
						CHANNELS 3 Yrotation Zrotation Xrotation
						JOINT lHand
						{
							OFFSET 8.370511 0.000000 0.000000 
							CHANNELS 3 Zrotation Yrotation Xrotation
							End Site
							{
								OFFSET 4.083176 0.000000 0.000000 
							}
						}
					}
				}
			}
			JOINT rCollar
			{
				OFFSET -3.470700 6.669187 -0.816635 
				CHANNELS 3 Yrotation Zrotation Xrotation
				JOINT rShldr
				{
					OFFSET -3.198488 0.000000 0.000000 
					CHANNELS 3 Zrotation Yrotation Xrotation
					JOINT rForeArm
					{
						OFFSET -10.139888 0.000000 0.000000 
						CHANNELS 3 Yrotation Zrotation Xrotation
						JOINT rHand
						{
							OFFSET -8.370511 0.000000 0.000000 
							CHANNELS 3 Zrotation Yrotation Xrotation
							End Site
							{
								OFFSET -4.083176 0.000000 0.000000 
							}
						}
					}
				}
			}
		}
	}
	JOINT lThigh
	{
		OFFSET 5.308129 -1.633274 1.361059 
		CHANNELS 3 Xrotation Zrotation Yrotation
		JOINT lShin
		{
			OFFSET -2.041588 -20.007561 0.000000 
			CHANNELS 3 Xrotation Zrotation Yrotation
			JOINT lFoot
			{
				OFFSET 0.000000 -19.190928 -1.224953 
				CHANNELS 3 Xrotation Yrotation Zrotation
				End Site
				{
					OFFSET 0.000000 -2.449906 4.627600 
				}
			}
		}
	}
	JOINT rThigh
	{
		OFFSET -5.308129 -1.633274 1.361059 
		CHANNELS 3 Xrotation Zrotation Yrotation
		JOINT rShin
		{
			OFFSET 2.041588 -20.007561 0.000000 
			CHANNELS 3 Xrotation Zrotation Yrotation
			JOINT rFoot
			{
				OFFSET 0.000000 -19.190928 -1.224953 
				CHANNELS 3 Xrotation Yrotation Zrotation
				End Site
				{
					OFFSET 0.000000 -2.449906 4.627600 
				}
			}
		}
	}
}
MOTION
Frames: 8
Frame Time: 0.033333
1.500332 49.873165 1.139113 0.722757 -2.038674 -2.746224 0.000000 0.000000 0.000000 -3.750206 0.019530 -0.605469 3.253867 -1.657169 -3.439167 11.485624 11.423177 -5.498211 1.323644 3.541085 -2.905642 -57.320011 9.138334 -8.596215 -22.058935 -0.373742 14.586166 -19.496929 -4.823264 -1.963062 -3.581568 0.137338 -2.816767 53.721203 -6.267235 -6.298249 16.356281 -1.750684 11.017398 4.529274 0.165751 -3.327382 7.151818 9.476804 7.772161 -0.870487 -1.794624 12.456739 -4.332655 0.292513 -7.684600 4.665730 -7.663740 -7.406158 0.761701 3.819309 -8.886972 -1.892535 -0.133708 7.082237 
1.688357 49.852196 1.068541 0.326777 -2.593267 -3.333734 0.000000 0.000000 0.000000 -3.391849 0.224587 -0.810541 3.165108 -1.588098 -3.907995 11.964464 10.285502 -5.497324 1.146735 2.920648 -2.552030 -61.394753 11.163715 -5.537371 -21.907526 -1.386799 17.893377 -21.443533 -3.605173 -2.064660 -3.768137 0.797179 -2.455882 58.310936 -6.033417 -3.015244 11.379082 -0.624832 12.210660 4.721209 2.443187 -3.195820 7.450725 9.795424 8.244910 -0.321206 -1.939526 12.565296 -4.734285 0.297342 -7.469187 4.823958 -7.304576 -6.971117 0.693162 3.610799 -8.802239 -1.523423 -0.126245 7.381209 
1.895058 49.892975 0.939507 0.496486 -3.175078 -4.195992 0.000000 0.000000 0.000000 -3.365084 0.341749 -0.957014 3.357738 -1.646342 -4.015379 10.724974 10.776567 -5.764698 1.018736 2.701820 -2.532115 -65.461739 13.545298 -2.996934 -22.321493 -2.328414 20.759405 -23.330128 -2.559657 -2.181386 -3.820809 1.655626 -2.397887 62.877506 -6.689536 -0.693687 8.089369 0.483094 13.044147 4.014640 2.647467 -3.207836 7.239797 10.110375 8.561098 -0.185448 -2.025973 13.125395 -4.756632 0.278955 -7.169878 4.235574 -6.979692 -6.544816 0.791035 3.544626 -8.364662 -0.434961 -0.053291 7.540532 
2.169518 49.927952 0.788777 0.330166 -3.394913 -5.067620 0.000000 0.000000 0.000000 -2.963645 0.273398 -0.976551 3.612427 -1.996651 -4.172490 9.423446 11.253153 -6.233512 0.851612 2.391762 -2.140672 -69.612129 15.918922 -1.373953 -24.121651 -2.903883 21.022161 -24.173700 -0.242672 -2.663361 -4.180034 1.721370 -2.026618 67.711945 -8.009073 -0.377963 6.702434 0.426044 16.248005 5.194325 2.056855 -3.174857 7.526891 9.968832 8.656617 -0.401238 -2.155091 14.009517 -4.610800 0.266080 -6.748118 3.980077 -7.181391 -6.547661 0.859045 3.611835 -7.267817 0.544160 0.019608 7.689666 
2.442077 49.946163 0.629132 0.310921 -3.507010 -5.860720 0.000000 0.000000 0.000000 -2.571280 0.146455 -1.142574 3.618686 -2.356329 -4.398437 8.177590 11.430657 -6.555190 0.638346 1.983011 -1.788304 -72.774200 17.936558 0.782368 -26.016544 -3.864794 19.488914 -24.662352 0.889279 -2.910522 -4.632071 1.630464 -1.674859 72.277275 -10.936748 0.520880 10.103457 0.814696 14.557874 7.105073 -1.950191 -3.409368 7.485438 9.702306 8.600242 -0.410147 -2.251821 15.066071 -4.570647 0.260541 -6.336227 3.483381 -7.465848 -6.587845 1.113054 3.738894 -6.157518 1.476606 0.076617 7.832059 
2.692307 49.929337 0.412942 0.389037 -4.081295 -6.941630 0.000000 0.000000 0.000000 -2.146910 0.322160 -1.464821 3.772300 -2.385160 -4.515929 6.821103 11.256025 -6.551365 0.626708 1.664909 -1.397235 -74.870552 19.314867 3.117580 -28.079241 -4.985812 17.084974 -23.608278 1.330958 -3.030563 -4.560205 1.820905 -1.276120 75.417053 -13.765099 2.000672 13.697678 1.020220 15.814142 10.454385 -2.143962 -3.361517 7.190930 9.817685 8.481583 0.038394 -1.949674 16.168995 -4.690497 0.247294 -6.291149 2.830017 -7.223810 -6.231858 1.238934 3.780786 -5.621603 2.309443 0.148763 7.928950 
2.860540 49.962032 0.109067 0.008992 -5.188791 -8.354862 0.000000 0.000000 0.000000 -1.161752 0.781015 -1.406253 4.234998 -2.453439 -4.476909 6.179683 11.558631 -6.897977 0.786568 1.731510 -0.498364 -76.767868 19.246824 4.092221 -29.213116 -5.323078 16.205137 -23.172720 2.052916 -3.200833 -4.312938 2.117059 -0.360777 77.514107 -15.057176 3.550551 15.298244 1.100540 19.655891 13.909004 -1.188915 -3.210512 7.496203 10.543820 9.200014 0.408698 -1.881733 17.182634 -4.620533 0.238392 -6.134564 2.537862 -6.307556 -5.402324 1.229310 3.694384 -5.094785 3.918816 0.252870 7.951475 
3.142316 49.973351 -0.190547 0.805468 -4.726941 -9.682100 0.000000 0.000000 0.000000 -1.313387 0.195254 -1.406242 4.048733 -2.744261 -4.800632 6.116483 11.168065 -7.007092 0.501356 1.195774 -0.625248 -77.482040 19.171755 5.487691 -29.979824 -5.741524 17.090853 -22.195215 2.210400 -3.249218 -4.320042 1.720221 -0.535923 78.886925 -16.474360 4.537049 16.400637 1.397431 19.264242 17.032854 -1.952634 -3.271003 6.598787 9.812174 8.459049 -0.029303 -1.968693 19.376637 -4.154996 0.199683 -5.644659 0.897724 -6.989202 -5.524528 1.482053 3.886666 -3.828228 5.152509 0.366002 7.943611 
